<?xml version="1.0" encoding="UTF-8" standalone="no"?>
<svg
   xmlns:dc="http://purl.org/dc/elements/1.1/"
   xmlns:cc="http://creativecommons.org/ns#"
   xmlns:rdf="http://www.w3.org/1999/02/22-rdf-syntax-ns#"
   xmlns:svg="http://www.w3.org/2000/svg"
   xmlns="http://www.w3.org/2000/svg"
   xmlns:sodipodi="http://sodipodi.sourceforge.net/DTD/sodipodi-0.dtd"
   xmlns:inkscape="http://www.inkscape.org/namespaces/inkscape"
   width="50.0px"
   height="50.0px"
   viewBox="0 0 50.0 50.0"
   version="1.1"
   id="SVGRoot"
   sodipodi:docname="sugestoes.svg"
   inkscape:version="1.0.1 (3bc2e813f5, 2020-09-07)">
  <defs
     id="defs2738" />
  <sodipodi:namedview
     id="base"
     pagecolor="#ffffff"
     bordercolor="#666666"
     borderopacity="1.0"
     inkscape:pageopacity="0.0"
     inkscape:pageshadow="2"
     inkscape:zoom="7.9195959"
     inkscape:cx="29.46752"
     inkscape:cy="31.972202"
     inkscape:document-units="px"
     inkscape:current-layer="layer1"
     inkscape:document-rotation="0"
     showgrid="true"
     inkscape:window-width="1350"
     inkscape:window-height="729"
     inkscape:window-x="0"
     inkscape:window-y="0"
     inkscape:window-maximized="0"
     inkscape:snap-bbox="true"
     inkscape:bbox-paths="true"
     inkscape:bbox-nodes="true"
     inkscape:snap-bbox-edge-midpoints="true"
     inkscape:snap-bbox-midpoints="true"
     inkscape:snap-intersection-paths="true"
     inkscape:object-paths="true"
     inkscape:snap-smooth-nodes="true"
     inkscape:snap-midpoints="true"
     inkscape:snap-object-midpoints="true">
    <inkscape:grid
       type="xygrid"
       id="grid2747" />
  </sodipodi:namedview>
  <metadata
     id="metadata2741">
    <rdf:RDF>
      <cc:Work
         rdf:about="">
        <dc:format>image/svg+xml</dc:format>
        <dc:type
           rdf:resource="http://purl.org/dc/dcmitype/StillImage" />
        <dc:title></dc:title>
      </cc:Work>
    </rdf:RDF>
  </metadata>
  <g
     inkscape:label="Layer 1"
     inkscape:groupmode="layer"
     id="layer1">
    <path
       style="fill:#e3d7f4;stroke:none;stroke-width:0.196168"
       d="m 24.608385,0.03788322 c -2.27849,0.54162 -1.992477,6.34971958 -1.41182,8.11099958 0.300921,0.91241 1.23468,1.50829 2.19551,1.29582 2.290848,-0.50658 2.015821,-6.4247496 1.367683,-8.1529196 C 26.434904,0.42588322 25.548617,-0.18562678 24.608385,0.03788322 M 7.9369416,6.9293428 c -1.028154,0.39989 -1.43075,1.63332 -0.948746,2.60058 0.790459,1.5862302 4.4687044,5.7192102 6.4347964,4.9022302 1.015012,-0.4218 1.392537,-1.5715 0.92195,-2.54822 C 13.585419,10.307513 9.9016606,6.1651728 7.9369416,6.9293428 m 32.7570104,0 c -1.518143,0.57197 -4.588758,3.6269102 -5.150191,5.1507602 -0.547896,1.48705 0.947687,2.91247 2.403841,2.37414 1.541487,-0.56987 4.571103,-3.58192 5.150779,-5.1204902 0.564571,-1.49852 -0.905903,-2.96896 -2.404429,-2.40441 M 23.823517,13.733443 c -6.114492,0.87597 -10.910797,6.31323 -9.918443,12.66691 0.534558,3.42254 2.513009,6.14614 4.29133,9.02372 0.746654,1.2082 0.712795,3.98202 1.748483,4.73589 0.728763,0.53044 1.854963,0.36448 2.701623,0.36448 2.104097,0 4.38906,0.25306 6.473343,-0.0371 1.842604,-0.25639 1.398873,-1.95579 1.836327,-3.29777 0.371346,-1.13974 1.067938,-2.13431 1.705287,-3.13869 1.631136,-2.57019 3.287185,-5.10311 3.502969,-8.23905 0.463741,-6.73132 -5.364798,-13.0778 -12.340919,-12.07841 m 4.904196,4.62403 v 0.19617 c -5.787147,0.004 -9.807764,4.56228 -9.808392,10.20073 -5.137008,-6.20087 3.501792,-13.72006 9.808392,-10.3969 m -27.0711634,4.80278 c -1.78388998,0.39037 -2.34718898,2.67808 -0.58487,3.57006 1.438926,0.72837 5.529497,0.60223 7.050543,0.10083 1.625094,-0.53574 1.796564,-2.85307 0.185712,-3.54044 -1.561986,-0.66638 -5.003555,-0.49101 -6.651385,-0.13045 m 40.4135194,0.01 c -1.6278,0.40626 -2.129598,2.65023 -0.555155,3.51023 1.435557,0.78427 5.703384,0.6754 7.220939,0.10612 1.584055,-0.59439 1.714114,-2.69279 0.193421,-3.46236 -1.46145,-0.73975 -5.283585,-0.54731 -6.859205,-0.15399 m -29.820455,12.36917 c -1.588136,0.41352 -4.7731954,3.65853 -5.3469274,5.18138 -0.532341,1.41299 0.745614,2.84404 2.208242,2.46426 1.5781704,-0.4096 4.7579724,-3.69424 5.3166584,-5.21061 0.512568,-1.39123 -0.733432,-2.81109 -2.177973,-2.43503 m 24.521962,0.0157 c -1.136597,0.33191 -1.620739,1.56699 -1.115411,2.6155 0.759366,1.57641 4.443202,5.71869 6.408019,4.95462 1.028116,-0.39999 1.430652,-1.6333 0.948668,-2.6006 -0.763878,-1.53305 -4.334721,-5.52625 -6.241276,-4.96952 m -16.653865,7.07675 c -1.165277,0.50121 -1.159411,3.95377 -0.574772,4.91008 0.477669,0.78095 1.396323,0.46021 2.089384,0.83411 1.731769,0.93415 2.772832,2.26064 4.937348,1.29726 0.707185,-0.31485 1.139539,-0.94161 1.799055,-1.29726 0.526319,-0.28405 1.173672,-0.1177 1.687436,-0.43216 0.899233,-0.55025 0.633622,-2.01817 0.63323,-2.9074 -1.96e-4,-0.71425 0.133002,-1.68901 -0.477473,-2.20846 -0.617536,-0.52534 -1.71588,-0.34172 -2.465045,-0.34172 -2.113512,0 -5.683375,-0.6913 -7.629163,0.14555 z"
       id="path1381" />
  </g>
</svg>
