<?xml version="1.0" encoding="UTF-8" standalone="no"?>
<svg
   xmlns:dc="http://purl.org/dc/elements/1.1/"
   xmlns:cc="http://creativecommons.org/ns#"
   xmlns:rdf="http://www.w3.org/1999/02/22-rdf-syntax-ns#"
   xmlns:svg="http://www.w3.org/2000/svg"
   xmlns="http://www.w3.org/2000/svg"
   xmlns:sodipodi="http://sodipodi.sourceforge.net/DTD/sodipodi-0.dtd"
   xmlns:inkscape="http://www.inkscape.org/namespaces/inkscape"
   width="50.0px"
   height="50.0px"
   viewBox="0 0 50.0 50.0"
   version="1.1"
   id="SVGRoot"
   sodipodi:docname="termos-de-servico.svg"
   inkscape:version="1.0.1 (3bc2e813f5, 2020-09-07)">
  <defs
     id="defs2738" />
  <sodipodi:namedview
     id="base"
     pagecolor="#ffffff"
     bordercolor="#666666"
     borderopacity="1.0"
     inkscape:pageopacity="0.0"
     inkscape:pageshadow="2"
     inkscape:zoom="7.9195959"
     inkscape:cx="-9.5503377"
     inkscape:cy="31.972202"
     inkscape:document-units="px"
     inkscape:current-layer="layer1"
     inkscape:document-rotation="0"
     showgrid="true"
     inkscape:window-width="1350"
     inkscape:window-height="729"
     inkscape:window-x="0"
     inkscape:window-y="0"
     inkscape:window-maximized="0"
     inkscape:snap-bbox="true"
     inkscape:bbox-paths="true"
     inkscape:bbox-nodes="true"
     inkscape:snap-bbox-edge-midpoints="true"
     inkscape:snap-bbox-midpoints="true"
     inkscape:snap-intersection-paths="true"
     inkscape:object-paths="true"
     inkscape:snap-smooth-nodes="true"
     inkscape:snap-midpoints="true"
     inkscape:snap-object-midpoints="true">
    <inkscape:grid
       type="xygrid"
       id="grid2747" />
  </sodipodi:namedview>
  <metadata
     id="metadata2741">
    <rdf:RDF>
      <cc:Work
         rdf:about="">
        <dc:format>image/svg+xml</dc:format>
        <dc:type
           rdf:resource="http://purl.org/dc/dcmitype/StillImage" />
        <dc:title></dc:title>
      </cc:Work>
    </rdf:RDF>
  </metadata>
  <g
     inkscape:label="Layer 1"
     inkscape:groupmode="layer"
     id="layer1">
    <path
       style="fill:#e5d5ff;stroke:#e5d5ff;stroke-width:0.925907;stroke-miterlimit:4;stroke-dasharray:none"
       d="M 11.129228,1.0880971 C 6.7861491,2.336377 7.719118,7.6379628 7.719118,11.101503 v 25.386378 c 0,3.008855 -0.934067,7.955781 0.7039985,10.602032 1.7388915,2.809545 5.1745385,2.280602 8.0107275,2.280602 h 16.292749 c 2.487866,0 5.550144,0.474759 7.956924,-0.217116 2.967554,-0.852899 3.405945,-3.567723 3.410108,-6.224206 V 26.257544 c 0,-3.735784 1.057519,-9.378409 -0.281142,-12.882634 C 42.961471,11.147224 40.434204,9.336428 38.789008,7.6913876 36.752798,5.6551331 34.571843,2.6194175 31.968791,1.3178979 30.248579,0.45781368 27.775113,0.87116628 25.906372,0.87116628 c -4.498314,0 -10.447252,-1.0275345 -14.777144,0.21693082 m 17.808354,2.8142756 c 0,4.3343649 -0.923761,10.4777113 4.546813,11.9134593 2.342747,0.61483 5.169349,0.211385 7.578026,0.211385 v 20.460664 c 0,2.442015 0.756666,6.401906 -0.228477,8.658646 -0.854805,1.957784 -4.871913,1.192781 -6.591747,1.192781 H 17.570548 c -1.606768,0 -4.974973,0.630108 -6.212692,-0.607376 -1.587064,-1.587217 -0.607529,-7.121456 -0.607529,-9.244051 v -23.49188 c 0,-1.996468 -0.89576,-6.9828105 0.607529,-8.4860945 1.035879,-1.0358861 3.369758,-0.6075338 4.697086,-0.6075338 h 12.88264 m 3.41011,1.5156078 7.199123,7.5780205 c -5.053405,0 -9.908266,-1.121542 -7.199123,-7.5780205 M 16.812745,22.08963 v 3.031215 H 35 V 22.08963 H 16.812745 m 0,6.062422 v 3.031206 H 35 V 28.152052 H 16.812745 m 0,6.062422 v 3.031206 h 12.124837 v -3.031206 z"
       id="path1429" />
  </g>
</svg>
